PathFileType	4	(X/Y/Z)	C:\Users\dbl\Desktop\20210112\20210112\bx_n_5_1802.trc
DataRate	CameraRate	NumFrames	NumMarkers	Units	OrigDataRate	OrigDataStartFrame	OrigNumFrames
50.00	50.00	       5	43	mm	50.00	131	       523
Frame#	Time	Top.Head			R.Acromium			L.Acromium			Sternum			R.ASIS			L.ASIS			V.Sacral			R.Thigh.Upper			R.Thigh.Front			R.Thigh.Rear			R.Knee.Lat			R.Knee.Med			R.Shank.Upper			R.Shank.Front			R.Shank.Rear			R.Ankle.Lat			R.Midfoot.Lat			R.Toe.Lat			R.Toe.Tip			R.Toe.Med			R.Ankle.Med			R.Midfoot.Sup			R.Heel			L.Thigh.Upper			L.Thigh.Front			L.Thigh.Rear			L.Knee.Lat			L.Knee.Med			L.Shank.Upper			L.Shank.Front			L.Shank.Rear			L.Ankle.Lat			L.Midfoot.Lat			L.Toe.Lat			L.Toe.Tip			L.Toe.Med			L.Ankle.Med			L.Midfoot.Sup			L.Heel			origin1 front left			origin2 front right			origin 3 back right			origin 4 back leftt			
		X1	Y1	Z1	X2	Y2	Z2	X3	Y3	Z3	X4	Y4	Z4	X5	Y5	Z5	X6	Y6	Z6	X7	Y7	Z7	X8	Y8	Z8	X9	Y9	Z9	X10	Y10	Z10	X11	Y11	Z11	X12	Y12	Z12	X13	Y13	Z13	X14	Y14	Z14	X15	Y15	Z15	X16	Y16	Z16	X17	Y17	Z17	X18	Y18	Z18	X19	Y19	Z19	X20	Y20	Z20	X21	Y21	Z21	X22	Y22	Z22	X23	Y23	Z23	X24	Y24	Z24	X25	Y25	Z25	X26	Y26	Z26	X27	Y27	Z27	X28	Y28	Z28	X29	Y29	Z29	X30	Y30	Z30	X31	Y31	Z31	X32	Y32	Z32	X33	Y33	Z33	X34	Y34	Z34	X35	Y35	Z35	X36	Y36	Z36	X37	Y37	Z37	X38	Y38	Z38	X39	Y39	Z39	X40	Y40	Z40	X41	Y41	Z41	X42	Y42	Z42	X43	Y43	Z43	

131	2.600	-282.87668	114.53203	1284.54224	-470.32898	-59.53360	1057.54407	-480.98895	280.34457	1043.29443	-565.61450	103.44510	881.34644	-801.31104	-6.09680	778.19995	-792.10461	233.55191	771.93683	-1001.26947	104.18074	808.43347	-803.05469	-81.83069	691.07574	-696.66516	-16.31072	729.49323	-706.10876	-75.19708	629.60034	-583.89966	-50.41922	554.93170	-547.79663	63.22820	542.69714	-570.13916	-48.99977	519.60205	-525.87244	2.34090	468.79468	-636.63361	-52.06022	460.08688	-745.14594	-12.74500	209.48808	-649.37396	-68.13133	161.27791	-612.17749	-80.52261	155.29419	-548.61536	-34.44552	163.93787	-595.61877	24.87334	166.18179	-702.20148	75.93588	207.83185	-669.74951	55.91387	153.12039	-787.40100	48.17475	179.14734	-808.32275	294.42444	663.80682	-696.88483	223.04991	723.68402	-681.92114	296.35571	611.02191	-593.81189	276.24435	551.75598	-519.02850	169.37552	535.94342	-560.78845	277.09579	518.03265	-509.35074	230.87357	475.72858	-618.93872	277.18884	462.87311	-755.03265	223.16780	207.23830	-661.30035	296.71600	159.33333	-625.84357	305.85648	159.04688	-554.37054	258.54077	163.55029	-589.59418	218.98293	172.76186	-696.16144	150.68916	206.26114	-672.32971	171.05057	152.58495	-788.20770	169.62660	190.21097	-528.49603	304.09253	146.30148	-518.04767	-72.81481	143.32260	-875.79492	-78.64086	141.06013	-882.64484	296.09027	144.57945	
132	2.620	-282.03958	115.09705	1272.60583	-468.14398	-58.99425	1045.73901	-479.08502	280.26596	1031.34082	-565.52881	103.53661	870.93091	-802.85931	-6.88536	770.59351	-793.24243	233.47194	764.38660	-1002.91846	104.26871	800.45282	-803.51849	-81.54060	686.08551	-698.31683	-14.82129	726.04480	-705.58984	-74.42085	626.54987	-582.15930	-48.73117	553.61859	-546.86322	65.05807	542.01294	-568.44006	-47.77851	518.87231	-523.90979	4.34176	468.17389	-635.13513	-50.99087	459.58676	-744.91034	-12.43830	209.51947	-649.29791	-67.87167	161.54831	-612.15271	-80.29031	155.42955	-548.65686	-34.44460	163.99771	-595.61243	25.03276	165.94034	-702.37079	76.48268	207.64644	-669.77319	56.03360	152.76405	-787.46436	48.24907	179.07600	-809.02057	294.40042	658.06036	-698.65051	222.55341	719.62506	-681.69385	296.52780	607.75916	-592.67670	276.55887	550.08380	-517.82910	169.32295	535.13879	-559.34485	277.33075	517.07635	-508.05469	231.23898	474.80206	-617.73254	277.38846	462.12335	-754.95258	222.98389	207.28493	-661.32159	296.58408	159.44371	-625.88397	305.81644	159.08115	-554.33350	258.54504	163.44102	-589.57104	218.95383	172.66605	-695.97882	150.45081	206.25063	-672.23212	170.99152	152.38895	-788.15411	169.41455	190.29439	-528.49445	304.14700	146.31496	-518.06763	-72.94214	143.40422	-875.81073	-78.60349	141.06122	-882.63062	296.07751	144.56380	
133	2.640	-281.31259	115.62527	1261.39624	-466.12109	-58.47654	1034.59082	-477.43866	280.23422	1020.11938	-565.48254	103.61911	860.86206	-804.35571	-7.61281	763.25262	-794.21118	233.34027	757.11493	-1004.45184	104.39751	792.85974	-804.04694	-81.19836	681.36188	-700.08881	-13.37647	722.80066	-705.19110	-73.67530	623.67957	-580.64331	-47.19314	552.52905	-546.13074	66.72514	541.31268	-566.90833	-46.64652	518.27600	-522.07062	6.32583	467.65979	-633.81451	-49.93800	459.10898	-744.68274	-12.10503	209.44785	-649.23553	-67.63448	161.93622	-612.08032	-79.96967	155.54640	-548.73163	-34.47666	164.06995	-595.66351	25.18738	165.67578	-702.46631	77.00309	207.45084	-669.74426	56.12425	152.39838	-787.52441	48.32432	178.96017	-809.75623	294.38745	652.66565	-700.36700	221.87999	715.68536	-681.52722	296.58292	604.64990	-591.63965	276.79395	548.58185	-516.81238	169.18922	534.45587	-558.10730	277.46500	516.17712	-506.83286	231.48596	473.98865	-616.69824	277.50394	461.45947	-754.95258	222.93642	207.35672	-661.35767	296.45767	159.51459	-625.90076	305.79205	159.10097	-554.37549	258.53531	163.32272	-589.58606	218.91101	172.57582	-695.86871	150.19000	206.27696	-672.17218	170.97368	152.18391	-788.16309	169.27615	190.30641	-528.46088	304.18607	146.31763	-518.08264	-73.04181	143.47389	-875.81903	-78.58160	141.05827	-882.60876	296.07410	144.55540	
134	2.660	-280.71487	116.14577	1250.94507	-464.29721	-57.92880	1024.07068	-476.06360	280.20111	1009.61664	-565.47424	103.69292	851.14270	-805.79724	-8.28695	756.17255	-795.04761	233.20190	750.26813	-1005.86084	104.50012	785.61768	-804.55725	-80.86586	676.81592	-701.81812	-12.10592	719.73193	-704.86639	-72.98459	620.90460	-579.28949	-45.98960	551.59528	-545.45276	68.16161	540.62616	-565.43213	-45.56276	517.63403	-520.26434	8.16397	467.29843	-632.56952	-49.03657	458.61462	-744.45850	-11.77545	209.35391	-649.17639	-67.42573	162.32756	-611.99951	-79.64258	155.66959	-548.78088	-34.50465	164.13934	-595.69916	25.34530	165.45116	-702.43237	77.45316	207.21817	-669.65015	56.22598	151.98912	-787.51544	48.40695	178.88606	-810.43976	294.45605	647.64880	-702.03400	221.17079	711.91162	-681.36755	296.54208	601.74103	-590.64050	276.97318	547.16089	-515.91455	169.06552	533.81781	-556.98145	277.59656	515.31512	-505.54474	231.51033	473.26263	-615.74878	277.59747	460.89899	-754.96570	222.93771	207.40553	-661.41089	296.33215	159.55797	-625.91034	305.78326	159.10811	-554.47235	258.53934	163.26662	-589.61475	218.87538	172.54219	-695.82227	149.94139	206.29150	-672.17615	170.97125	152.04120	-788.18933	169.14174	190.27135	-528.41095	304.19431	146.29504	-518.08459	-73.09740	143.49553	-875.80334	-78.58986	141.06090	-882.60468	296.07846	144.55663	
135	2.680	-280.24158	116.66084	1241.25098	-462.69177	-57.31419	1014.16486	-474.91077	280.14496	999.83813	-565.50220	103.75832	841.77576	-807.18188	-8.91455	749.35083	-795.76801	233.09906	743.88678	-1007.11566	104.57745	778.69189	-804.95020	-80.59244	672.42584	-703.32288	-11.02611	716.76483	-704.53320	-72.39037	618.16302	-577.98920	-45.09197	550.71680	-544.74207	69.37318	539.94690	-563.90338	-44.39941	516.78156	-518.52148	9.77042	467.05814	-631.32031	-48.33902	458.10684	-744.23615	-11.49293	209.33923	-649.11224	-67.23048	162.62781	-611.95807	-79.38397	155.79393	-548.78003	-34.50910	164.16223	-595.66937	25.50778	165.29063	-702.29486	77.83414	206.97372	-669.52417	56.35402	151.53740	-787.42798	48.50280	178.93208	-810.92664	294.59131	642.90723	-703.60889	220.60675	708.34271	-681.15735	296.49930	599.02350	-589.62219	277.19128	545.75732	-515.02527	169.05673	533.17676	-555.87463	277.80353	514.44629	-504.15552	231.37370	472.57343	-614.77368	277.81927	460.46997	-754.93219	222.88718	207.42406	-661.46222	296.21704	159.58972	-625.91901	305.78922	159.10658	-554.57764	258.59241	163.29784	-589.62689	218.87312	172.56250	-695.78278	149.70760	206.28871	-672.24036	170.96304	151.98485	-788.18604	168.96913	190.22839	-528.37073	304.17343	146.25563	-518.07166	-73.13689	143.50006	-875.77216	-78.62080	141.07440	-882.62567	296.08508	144.57701	
